<?xml version="1.0" encoding="UTF-8" standalone="no"?><!DOCTYPE svg PUBLIC "-//W3C//DTD SVG 1.1//EN" "http://www.w3.org/Graphics/SVG/1.1/DTD/svg11.dtd"><svg width="100%" height="100%" viewBox="0 0 1334 1334" version="1.1" xmlns="http://www.w3.org/2000/svg" xmlns:xlink="http://www.w3.org/1999/xlink" xml:space="preserve" xmlns:serif="http://www.serif.com/" style="fill-rule:evenodd;clip-rule:evenodd;stroke-linejoin:round;stroke-miterlimit:2;"><rect id="favicon" x="0" y="-0" width="1333.33" height="1333.33" style="fill:none;"/><clipPath id="_clip1"><rect x="0" y="-0" width="1333.33" height="1333.33"/></clipPath><g clip-path="url(#_clip1)"><g><circle cx="666.667" cy="666.667" r="666.667" style="fill:#fff;"/><g><path d="M931.63,990.727c-9.179,7.413 -18.665,14.515 -28.464,21.173c-67.478,45.853 -148.875,72.619 -236.392,72.619c-87.516,0 -168.87,-26.81 -236.393,-72.619c-9.797,-6.658 -19.285,-13.716 -28.462,-21.173c-9.266,-7.501 -18.177,-15.314 -26.778,-23.57c7.315,-11.097 12.946,-23.393 16.492,-36.575l513.75,-0c-2.306,-10.876 -3.503,-22.15 -3.503,-33.691c0,-12.874 1.552,-25.346 4.346,-37.332l-515.613,0c-5.941,-19.441 -16.359,-36.93 -30.103,-51.223l18.266,-31.693l18.088,-31.338l202.965,-351.955l18.088,-31.338l18.311,-31.737c9.797,2.396 20.039,3.728 30.591,3.728c10.551,0 20.792,-1.287 30.591,-3.728l18.31,31.737l18.088,31.338l202.964,351.955l18.088,31.338c17.424,-16.024 38.305,-28.32 61.359,-35.6l-18.088,-31.338l-202.964,-351.954l-18.089,-31.337l-18.265,-31.694c10.773,-11.231 19.551,-24.369 25.669,-38.929c6.428,-15.269 9.975,-32.047 9.975,-49.625c0,-8.434 -0.841,-16.646 -2.393,-24.592c-11.438,-58.814 -63.177,-103.247 -125.29,-103.247c-62.112,0 -113.851,44.389 -125.289,103.247c-12.637,3.285 -25.05,7.103 -37.286,11.319c-12.236,4.262 -24.251,8.967 -36.044,14.16c-174.811,76.703 -296.954,251.459 -296.954,454.757c0,20.241 1.242,40.216 3.592,59.836c1.507,12.695 3.546,25.257 5.985,37.641c20.66,-13.272 44.512,-22.016 70.093,-24.769c-1.995,-11.585 -3.547,-23.303 -4.611,-35.2c-1.108,-12.384 -1.685,-24.857 -1.685,-37.508c0,-167.121 97.404,-311.916 238.343,-380.451c10.597,-5.148 21.458,-9.854 32.542,-14.16c10.995,-4.261 22.212,-8.034 33.605,-11.363c6.119,14.559 14.897,27.698 25.67,38.929l-18.266,31.692l-18.088,31.338l-202.965,351.955l-18.088,31.338l-18.309,31.738c-9.799,-2.397 -20.04,-3.729 -30.591,-3.729c-3.37,-0 -6.695,0.177 -9.976,0.444c-25.891,1.998 -49.61,11.719 -68.852,26.899c-29.704,23.392 -48.812,59.702 -48.812,100.495c-0,70.577 57.147,127.837 127.684,127.837c17.689,0 34.537,-3.595 49.832,-10.119c9.044,8.921 18.398,17.533 28.108,25.745c9.62,8.166 19.595,15.979 29.837,23.437c81.62,59.258 181.994,94.192 290.525,94.192c108.531,-0 208.905,-34.934 290.524,-94.192c10.242,-7.458 20.217,-15.271 29.838,-23.437c-22.079,-12.073 -41.098,-29.163 -55.506,-49.671Z" style="fill:#22212e;fill-rule:nonzero;"/><path d="M1143.9,796.441c3.414,-12.163 6.384,-24.547 8.867,-37.108c2.482,-12.385 4.478,-24.947 5.985,-37.642c2.35,-19.62 3.592,-39.594 3.592,-59.835c-0,-203.342 -122.187,-378.055 -296.999,-454.713c-11.792,-5.149 -23.807,-9.899 -36.044,-14.16c0.356,4.394 0.577,8.789 0.577,13.272c0,21.573 -4.212,42.125 -11.837,60.99c11.083,4.261 21.945,8.966 32.542,14.159c140.939,68.536 238.342,213.331 238.342,380.452c0,12.65 -0.575,25.167 -1.684,37.508c-1.065,11.896 -2.572,23.614 -4.61,35.2c-2.04,11.851 -4.612,23.48 -7.627,34.977c-3.281,-0.266 -6.605,-0.443 -9.975,-0.443c-10.551,0 -20.793,1.287 -30.591,3.728c-23.808,5.859 -44.955,18.422 -61.404,35.555c-13.742,14.293 -24.162,31.738 -30.103,51.224c-3.59,11.808 -5.541,24.369 -5.541,37.33c0,11.674 1.595,22.949 4.521,33.691c3.592,13.14 9.222,25.479 16.493,36.577c13.789,20.905 33.517,37.551 56.793,47.45c15.295,6.525 32.142,10.121 49.832,10.121c70.492,-0 127.684,-57.216 127.684,-127.839c0,-40.793 -19.108,-77.102 -48.813,-100.494Z" style="fill:#00d8b9;fill-rule:nonzero;"/></g></g></g></svg>